<?xml version="1.0" encoding="UTF-8"?><svg id="Layer_2" xmlns="http://www.w3.org/2000/svg" viewBox="0 0 685.64 221.28"><defs><style>.cls-1{fill:#0e88db;}</style></defs><g id="Layer_1-2"><path class="cls-1" d="M685.64,221.28V21.69c-16.19,10.85-37.32,21.69-57.14,21.69s-40.95-10.85-57.14-21.69h0c-16.19-10.85-37.32-21.69-57.14-21.69s-40.95,10.85-57.14,21.69c-16.19,10.85-37.32,21.69-57.14,21.69s-40.95-10.85-57.14-21.69h0C326.64,10.85,305.5,0,285.69,0s-40.95,10.85-57.14,21.69c-16.19,10.85-37.32,21.69-57.14,21.69s-40.95-10.85-57.14-21.69h0C98.09,10.85,76.95,0,57.14,0S16.19,10.85,0,21.69V221.28H685.64Z"/></g></svg>